<?xml version="1.0" standalone="no"?>
<!DOCTYPE svg PUBLIC "-//W3C//DTD SVG 20010904//EN"
 "http://www.w3.org/TR/2001/REC-SVG-20010904/DTD/svg10.dtd">
<svg version="1.0" xmlns="http://www.w3.org/2000/svg"
 width="192.000000pt" height="192.000000pt" viewBox="0 0 192.000000 192.000000"
 preserveAspectRatio="xMidYMid meet">
<metadata>
Created by potrace 1.11, written by Peter Selinger 2001-2013
</metadata>
<g transform="translate(0.000000,192.000000) scale(0.100000,-0.100000)"
fill="#000000" stroke="none">
<path d="M145 1429 c14 -77 46 -172 62 -185 10 -7 29 -19 43 -26 39 -21 394
-227 406 -235 5 -4 32 -20 60 -35 l49 -27 3 -60 3 -61 -33 19 c-37 22 -56 33
-141 79 -31 18 -59 32 -60 32 -2 0 8 -45 21 -99 l25 -99 51 -28 c28 -15 53
-30 56 -33 3 -3 22 -15 42 -25 l37 -19 3 -145 3 -146 47 -27 c25 -15 66 -39
91 -52 l45 -25 58 30 c33 17 76 42 97 55 l37 23 0 144 c0 138 1 143 23 154 12
7 31 17 42 24 11 7 43 26 70 42 28 16 51 31 53 32 2 1 5 14 8 30 3 15 7 31 9
34 2 4 7 22 10 41 4 19 8 39 9 44 1 6 5 16 10 23 20 33 -6 23 -147 -57 -21
-12 -49 -29 -63 -37 l-24 -16 0 58 c0 68 -8 60 160 155 52 30 104 59 115 66
11 7 29 17 40 22 11 6 38 22 60 36 22 14 47 28 55 32 14 6 141 82 148 88 7 6
55 196 50 200 -3 3 -130 -67 -283 -155 -153 -88 -282 -160 -286 -160 -5 0 -9
-4 -9 -10 0 -5 -4 -10 -9 -10 -11 0 -150 -78 -171 -96 -14 -12 -16 -53 -15
-301 0 -261 -2 -290 -17 -305 -22 -22 -29 -22 -53 -4 -18 13 -19 31 -19 309 0
288 0 296 -20 306 -12 6 -43 24 -71 40 -27 16 -72 42 -100 56 -27 15 -57 33
-66 41 -8 8 -18 14 -21 14 -3 0 -92 50 -199 112 -107 61 -218 124 -247 140
l-53 29 6 -32z"/>
<path d="M236 1090 c9 -44 13 -60 54 -215 23 -88 43 -168 45 -177 2 -9 11 -44
20 -77 l17 -60 89 -51 c49 -27 93 -50 98 -50 5 0 11 -4 13 -8 2 -5 27 -21 56
-35 46 -23 52 -24 53 -9 1 21 1 122 0 139 -1 6 -47 38 -104 71 l-102 60 -20
89 c-10 48 -20 93 -22 98 -1 6 -9 40 -18 76 -18 75 -23 81 -117 133 -60 32
-66 34 -62 16z"/>
<path d="M1627 1075 c-32 -19 -62 -35 -66 -35 -13 0 -41 -36 -45 -57 -5 -26
-54 -228 -66 -274 -9 -31 -21 -41 -92 -82 -131 -73 -124 -60 -119 -210 l1 -28
58 32 c31 17 87 49 124 70 36 22 70 39 75 39 4 0 18 8 31 18 16 12 30 47 51
125 16 59 26 107 24 107 -3 0 0 7 7 15 7 8 10 15 6 15 -3 0 -1 11 4 25 5 14
12 36 14 49 2 12 16 67 30 121 15 54 25 99 23 101 -2 2 -29 -12 -60 -31z"/>
</g>
</svg>
