<svg width="317" height="90" viewBox="0 0 317 90" fill="none" xmlns="http://www.w3.org/2000/svg">
<path d="M110.986 31.9736H100.541V42.4585L107.635 49.0823V38.1191H111.221C113.586 38.1191 114.729 39.1864 114.729 40.8791V49.0097C114.729 50.7032 113.625 51.8432 111.221 51.8432H100.541V58.0259H110.986C116.582 58.0622 121.824 55.4501 121.824 49.4517V40.6949C121.824 34.623 116.58 31.9736 110.986 31.9736Z" fill="#B45A44"/>
<path d="M148.923 57.5108L141.716 49.0837C145.125 48.0908 147.226 45.3645 147.226 40.5477C147.068 34.4396 142.589 31.9736 136.8 31.9736H125.581V58.0263H132.756V49.7463H134.025L140.526 58.0263H149.368L148.923 57.5108ZM136.917 44.0801H132.753V38.119H136.917C141.396 38.119 141.396 44.0801 136.917 44.0801Z" fill="#B45A44"/>
<path d="M164.371 31.9736H157.908L148.308 57.5074L148.115 58.0263H155.731L157.475 52.801H164.969L166.794 58.0263H174.406L164.371 31.9736ZM159.058 46.9488L161.121 39.3324H161.318L163.261 46.9488H159.058Z" fill="#B45A44"/>
<path d="M195.691 38.2297V31.9736H176.911V58.0263H183.805V49.0483H194.205V42.9029H183.805V38.2323L195.691 38.2297Z" fill="#B45A44"/>
<path d="M196.942 31.9736V38.2201H204.549V58.0263H211.87V38.2201H219.477V31.9736H196.942Z" fill="#B45A44"/>
<path d="M239.25 44.1536C241.248 43.197 242.07 41.0995 242.109 39.9224C242.266 34.9542 238.389 31.9736 233.103 31.9736H221.981V58.0263H233.303C239.45 58.0263 242.465 55.4868 243.17 51.2919C243.519 49.306 243.049 45.957 239.25 44.1536ZM229.034 37.53H233.106C236.631 37.53 236.512 42.1669 233.106 42.1669H229.034V37.53ZM233.106 52.2494H229.034V46.9145H233.106C237.254 46.9145 237.332 52.2494 233.103 52.2494H233.106Z" fill="#B45A44"/>
<path d="M257.838 31.9736C251.914 31.9736 246.03 34.8332 246.03 40.6685V49.3314C246.03 55.128 251.954 58.0263 257.879 58.0263C263.804 58.0263 269.686 55.128 269.686 49.3314V40.6693C269.686 34.8728 263.763 31.9736 257.838 31.9736ZM262.474 49.3272C262.474 51.1531 260.176 52.0825 257.879 52.0825C255.582 52.0825 253.244 51.1876 253.244 49.3272V40.6693C253.244 38.8089 255.501 37.8097 257.758 37.8097C260.096 37.8097 262.474 38.7046 262.474 40.6693V49.3272Z" fill="#B45A44"/>
<path d="M270.808 31.9736V38.2201H278.415V58.0263H285.737V38.2201H293.343V31.9736H270.808Z" fill="#B45A44"/>
<path d="M50.2705 72.2369L59.1012 67.5334V54.8167L67.8665 50.0257L70.1745 41.1489L59.1012 47.1391V41.9226L86.1579 27.1006L88.7127 17.7632L52.3024 37.5655V63.7737L50.2705 64.8734V72.2369Z" fill="#B45A44"/>
<path d="M84.3535 33.3611L76.5934 37.5654L72.7506 52.6322L63.2505 57.7888V65.3147L77.7418 57.6039L84.3535 33.3611Z" fill="white"/>
<path d="M50.2703 72.2369L41.4396 67.5334V54.8167L32.6731 50.0257L30.3663 41.1489L41.4396 47.1391V41.9226L14.3829 27.1017L11.8281 17.7632L48.2373 37.5655V63.7737L50.2703 64.8734V72.2369Z" fill="#CD6E57"/>
<path d="M16.1865 33.3611L23.9478 37.5654L27.7895 52.6322L37.2896 57.7888V65.3147L22.7983 57.6039L16.1865 33.3611Z" fill="white"/>
</svg>
