<svg xmlns="http://www.w3.org/2000/svg" viewBox="0 0 3000 3000"><defs><style>.cls-1{fill:#202225;}.cls-2{fill:#b45a44;}.cls-3{fill:#fff;}.cls-4{fill:#cd6e57;}</style></defs><title>DraftBot - Bot</title><g id="Calque_2" data-name="Calque 2"><rect class="cls-1" x="-0.04" y="0.01" width="3000.04" height="2999.83"/></g><g id="DraftBot"><polygon id="d" class="cls-2" points="1499.24 2435 1734.3 2302.99 1734.3 1946.02 1967.65 1811.54 2029.08 1562.38 1734.3 1730.53 1734.3 1584.09 2454.53 1168.07 2522.53 905.96 1553.34 1461.8 1553.34 2197.46 1499.24 2228.32 1499.24 2435"/><polygon id="c" class="cls-3" points="2406.53 1343.8 2199.95 1461.8 2097.65 1884.73 1844.78 2029.45 1844.78 2240.7 2230.52 2024.26 2406.53 1343.8"/><polygon id="b" class="cls-4" points="1499.24 2435 1264.18 2302.99 1264.18 1946.02 1030.83 1811.54 969.4 1562.38 1264.18 1730.53 1264.18 1584.1 543.95 1168.07 475.94 905.96 1445.14 1461.8 1445.14 2197.46 1499.24 2228.32 1499.24 2435"/><polygon id="a" class="cls-3" points="591.95 1343.8 798.53 1461.8 900.83 1884.73 1153.7 2029.45 1153.7 2240.7 767.96 2024.26 591.95 1343.8"/></g></svg>